<svg version="1.0" xmlns="http://www.w3.org/2000/svg" width="1034.667" height="1034.667" viewBox="0 0 776 776"><path d="M371.7 56.7c-.2.2-2.6.5-5.3.8-4.2.4-8 1-17.9 3-4.5 1-18.4 5.5-25 8.1-7.3 2.9-25.6 12.2-26.5 13.4-.3.4-1.6 1.3-2.9 2-1.4.7-3 1.7-3.5 2.1-.6.5-4.2 3.3-8.1 6.2-9.6 7.2-22.7 20.4-31.2 31.4-3.9 5.1-7.3 9.8-7.5 10.4-.3.8-2.4.4-6.8-1.4-7.3-2.9-15.4-5.7-17.9-6.2-.9-.2-4.3-1-7.6-1.8-10.8-2.7-16.9-3.6-29.5-4.3-5.2-.3-9.9-.5-10.5-.5-6.4-.4-28.5 2.2-38.2 4.6-1.3.3-3.3.7-4.5 1-8.3 1.8-25.9 8.6-35.8 13.8-9 4.8-21.4 12.6-21.8 13.8-.2.5-.8.9-1.4.9-1.6 0-10.7 8-20.3 17.7-10.8 11.1-10.3 10.4-17.1 20.1-3 4.2-5.9 8.3-6.5 9-1.9 2.3-12.7 24.6-15.3 31.6-2.7 7.1-5.6 17.4-6.1 21.3-.2 1.1-.7 3.2-1.1 4.5-.8 2.6-.8 2.6-2 12.3-1 8-1 36.8 0 43.5.9 6.6 1.8 12.4 2 13.5.1.5.4 1.4.7 2 .4.5.9 2.6 1.3 4.5.7 4.2 4.7 16.8 7.1 22.5C23.9 383.9 44 410.7 65.6 427c3.2 2.5 6.1 4.8 6.4 5.1.3.3 5 3.3 10.5 6.6 11.8 7 24.5 13.2 30.5 14.8.3.1 1.2.4 2 .8 3.8 1.5 14 4.5 18 5.3 5.2.9 5.9 1.1 6.3 1.4.1.1 1.6.3 3.2.4 5.4.5 9.3 1.7 9.9 3.1.3.8.1 1.7-.4 2-.5.3-.6 1.5 0 2.9.4 1.2.4 2.9 0 3.6-.5.8-.6 1.8-.3 2.4.5.8.7 7.7.3 9.1-.5 1.5-.2 8.6.3 9.1.4.4.2 1.4-.3 2.4s-.7 2-.3 2.3c.5.6.7 8.3.3 10.4-.4 2-.2 8.5.3 9 .4.3.2 1.3-.3 2.2-.5 1-.5 2.3-.1 3 .5.7.5 3 .1 5.1-.4 2.1-.4 4.4.1 5.1.4.7.4 2-.1 2.9-.5.9-.5 2.2-.1 2.9.5.7.5 3 .1 5.1-.4 2.1-.4 4.4.1 5.1.4.7.4 2-.1 3-.5.9-.7 1.9-.3 2.2.5.6.7 8.7.3 10.2-.5 1.5-.2 8.6.3 9.1.4.4.2 1.4-.3 2.4s-.7 2-.3 2.3c.5.6.7 8.3.3 10.4-.1.5-.1 2.6-.1 4.8.1 2.2.1 4.6.1 5.2v3c0 1 0 3.4-.1 5.3s-.1 4.1 0 4.7c.1.7.1 2 .1 2.8v3.2c0 1 0 3.4-.1 5.3s-.1 4.1 0 4.7c.1.7.1 2 .1 2.8v3.2c0 1 0 3.4-.1 5.3s-.1 4.1 0 4.7c.1.7.1 2 .1 2.8v3.2c0 1 0 3.4-.1 5.3s-.1 4.1 0 4.7c.2 1.9.2 3.6 0 17.5-.1 7 .2 13.1.6 13.7.3.6.3 1.1-.2 1.1-.4 0-.7 2.1-.6 4.7.1 2.7.2 4.8.3 4.8 0 0 .3 2.3.5 5.1.2 3.6 1 6 2.6 7.8 5.2 6-12.6 5.6 236.8 5.6 215.8 0 228.8-.1 232-1.7 5.3-2.7 7.5-6.5 8.1-13.8.3-3.6.2-6.5-.3-6.5-.4 0-.5-.5-.1-1.1.3-.6.6-3.7.5-7-.2-6.9-.2-6.5-.2-19.4 0-5.5 0-11.1.1-12.5.1-1.4.1-3.2.1-4v-14.3c-.1-3.7-.1-14.5 0-25.7v-14.5c0-2.8.1-6.1 0-7.5 0-4.1-.1-12.2-.1-16 .1-10.9.2-16.7.1-18v-41.8c0-4.8.1-9.8.2-11.2.2-1.4 0-4-.4-5.8-.4-1.7-.3-3.4.1-3.7.4-.3.4-2.1 0-4s-.5-5-.1-6.8c.6-3.1.7-4 .1-9.7-.1-1.4-.2-5-.1-8 .1-5.3.2-5.6 2.9-5.8 3.9-.2 20-4.5 26.2-6.9.8-.4 1.8-.7 2.3-.8.4-.2.8-.3 1-.5.1-.1.9-.3 1.8-.5 2-.4 28.1-13.3 28.9-14.3.3-.4 2.5-2 5-3.6 12.8-8.2 31.8-26.1 41.2-38.8 6.7-9.1 14.7-22.3 18-29.8 1.6-3.6 3.3-7.4 3.8-8.5 3.1-6.8 7.5-20.9 8.6-27.4.3-1.4.7-3.3 1-4.1 3.1-8.8 4-47.1 1.4-60.4-.6-3.2-1.2-6.8-1.2-8-.1-1.1-.5-2.6-.8-3.1-.4-.6-1-2.7-1.4-4.8-.8-4.1-5.3-18.3-6.4-20.1-.3-.6-.8-1.8-.9-2.7-.9-5.7-16.7-32.3-25.8-43.5-4.7-5.8-24.5-25.4-25.6-25.4-.4 0-1.4-.6-2.1-1.3-6.4-6.3-23.2-16.2-40.8-24.1-3.7-1.6-17.9-6.3-21.4-7.1-1.2-.2-5.2-1.1-9.1-1.9-9.8-2.1-18.9-3.2-26.2-3.1-3.5 0-6.3-.3-6.3-.6s-1.7-.4-3.7-.2c-2.1.2-6.7.5-10.3.8-3.6.3-7.2.6-8 .6-1.9.2-15.8 2.6-19 3.4-1.4.3-3.5.8-4.8 1.1-3.5.7-20.6 6.5-21.7 7.4-.5.4-2.1 1-3.5 1.3-2.2.5-3.2-.4-8.2-7.6-8.6-12.3-21.1-24.8-38-38.2-.9-.7-2.7-1.9-4-2.6-1.3-.6-2.5-1.5-2.8-1.8-.6-.9-8.8-5.6-16.5-9.6-12.9-6.7-35.3-14.1-48-16-2.2-.3-6.4-.9-9.4-1.4-5.3-.8-35.7-1.2-36.4-.4z"/></svg>