<svg xmlns="http://www.w3.org/2000/svg" aria-hidden="true" style="width:0;height:0;position:absolute;overflow:hidden"><defs><symbol id="icon-align-justify" viewBox="0 0 23 24"><path stroke-linecap="round" stroke-linejoin="round" stroke-width="1.454" d="M20.364 10.061H2.909m17.455-3.879H2.909m17.455 7.757H2.909m17.455 3.879H2.909"/></symbol><symbol id="icon-chevron-down" viewBox="0 0 24 24"><path stroke-linecap="round" stroke-linejoin="round" stroke-width="2.667" d="m6 9 6 6 6-6"/></symbol><symbol id="icon-search-3-1" viewBox="0 0 24 24"><path d="M21.71 20.29 18 16.61a9.005 9.005 0 0 0-1.014-12.334A9 9 0 1 0 16.61 18l3.68 3.68a1.007 1.007 0 0 0 .71.296.998.998 0 0 0 .71-.296 1.003 1.003 0 0 0 0-1.39zM11 18a7.002 7.002 0 0 1-6.865-8.365 7.003 7.003 0 0 1 9.544-5.102A7 7 0 0 1 11 18z"/></symbol><symbol id="search-arrow" viewBox="0 0 24 24"><path d="m5.293 9.707 6 6a.999.999 0 0 0 1.414 0l6-6a.999.999 0 1 0-1.414-1.414L12 13.586 6.707 8.293a.999.999 0 1 0-1.414 1.414z"/></symbol><symbol id="icon-shopping-cart-03" viewBox="0 0 24 24"><path stroke-linecap="round" stroke-linejoin="round" stroke-width="1.5" d="M5 14h13.136c1.013 0 1.519 0 1.922-.189a2 2 0 0 0 .858-.768c.232-.38.288-.883.4-1.89l.585-5.265c.034-.307.051-.461.002-.58a.498.498 0 0 0-.22-.246C21.57 5 21.416 5 21.106 5H4.5M2 2h1.248c.265 0 .397 0 .5.05a.5.5 0 0 1 .217.203c.057.1.065.232.081.496l.906 14.5c.016.264.025.396.081.496.05.088.125.159.217.204.104.05.236.05.5.05h13.248M7.5 21.5h.01m8.99 0h.01M8 21.5a.5.5 0 1 1-1 0 .5.5 0 0 1 1 0zm9 0a.5.5 0 1 1-1 0 .5.5 0 0 1 1 0z"/></symbol><symbol id="icon-Star-1" viewBox="0 0 24 24"><path d="M10.37 2.446c.513-1.579 2.748-1.579 3.261 0l1.449 4.459a1.715 1.715 0 0 0 1.63 1.185h4.688c1.661 0 2.351 2.125 1.008 3.101l-3.793 2.756a1.715 1.715 0 0 0-.623 1.917l1.449 4.459c.513 1.579-1.294 2.893-2.638 1.917l-3.793-2.756a1.716 1.716 0 0 0-2.015 0L7.2 22.24c-1.344.976-3.151-.337-2.638-1.917l1.449-4.459a1.716 1.716 0 0 0-.623-1.917l-3.793-2.755C.251 10.216.942 8.091 2.603 8.091h4.688c.743 0 1.401-.478 1.63-1.185l1.449-4.459z"/></symbol><symbol id="icon-heart" viewBox="0 0 32 32"><path stroke-linejoin="round" stroke-linecap="round" stroke-width="2.909" d="M27.787 6.147a7.345 7.345 0 0 0-5.187-2.15 7.33 7.33 0 0 0-5.187 2.15L16 7.56l-1.413-1.413a7.333 7.333 0 0 0-10.374 0 7.333 7.333 0 0 0 0 10.374L16 28.308l11.787-11.787a7.345 7.345 0 0 0 2.15-5.187 7.33 7.33 0 0 0-2.15-5.187z"/></symbol><symbol id="icon-x-mobile" viewBox="0 0 24 24"><path stroke-linecap="round" stroke-linejoin="round" stroke-width="2" d="M18 6 6 18M6 6l12 12"/></symbol><symbol id="icon-x" viewBox="0 0 24 24" fill="none"><path stroke-linecap="round" stroke-linejoin="round" stroke-width="2" d="M18 6 6 18M6 6l12 12"/></symbol><symbol id="icon-chevrons-right" viewBox="0 0 24 24"><path d="m13.707 17.707 5-5a.999.999 0 0 0 0-1.414l-5-5a.999.999 0 1 0-1.414 1.414L16.586 12l-4.293 4.293a.999.999 0 1 0 1.414 1.414zm-7 0 5-5a.999.999 0 0 0 0-1.414l-5-5a.999.999 0 1 0-1.414 1.414L9.586 12l-4.293 4.293a.999.999 0 1 0 1.414 1.414z"/></symbol><symbol id="icon-chevron-right" viewBox="0 0 24 24"><path d="m9.707 18.707 6-6a.999.999 0 0 0 0-1.414l-6-6a.999.999 0 1 0-1.414 1.414L13.586 12l-5.293 5.293a.999.999 0 1 0 1.414 1.414z"/></symbol><symbol id="icon-chevrons-left" viewBox="0 0 24 24"><path d="M11.707 16.293 7.414 12l4.293-4.293a.999.999 0 1 0-1.414-1.414l-5 5a.999.999 0 0 0 0 1.414l5 5a.999.999 0 1 0 1.414-1.414zm7 0L14.414 12l4.293-4.293a.999.999 0 1 0-1.414-1.414l-5 5a.999.999 0 0 0 0 1.414l5 5a.999.999 0 1 0 1.414-1.414z"/></symbol><symbol id="icon-chevron-left" viewBox="0 0 24 24"><path d="M15.707 17.293 10.414 12l5.293-5.293a.999.999 0 1 0-1.414-1.414l-6 6a.999.999 0 0 0 0 1.414l6 6a.999.999 0 1 0 1.414-1.414z"/></symbol><symbol id="icon-Logo" viewBox="0 0 32 32"><symbol id="icon-elements" viewBox="0 0 37 32"><path fill="#9bb537" style="fill:var(--color1,#9bb537)" d="M7.325 12.723h23.133v17.735H7.325V12.723z"/><path fill="#9bb537" style="fill:var(--color1,#9bb537)" d="M16.578 11.373a8.289 8.289 0 1 1-16.578 0 8.289 8.289 0 1 1 16.578 0z"/><path fill="#9bb537" style="fill:var(--color1,#9bb537)" d="M26.988 8.289a8.289 8.289 0 1 1-16.578 0 8.289 8.289 0 1 1 16.578 0z"/><path fill="#9bb537" style="fill:var(--color1,#9bb537)" d="M37.398 11.373a8.289 8.289 0 1 1-16.578 0 8.289 8.289 0 1 1 16.578 0z"/><path fill="#f8f8f8" style="fill:var(--color2,#f8f8f8)" d="M7.325 29.301h23.133v2.036c0 .366-.324.663-.723.663H8.048c-.399 0-.723-.297-.723-.663v-2.036zM14.265 10.36c0-.611.432-1.107.964-1.107s.964.495.964 1.107v5.112c0 .611-.432 1.107-.964 1.107s-.964-.495-.964-1.107V10.36zM17.349 10.36c0-.611.604-1.107 1.349-1.107s1.349.495 1.349 1.107v5.112c0 .611-.604 1.107-1.349 1.107s-1.349-.495-1.349-1.107V10.36zM21.205 10.36c0-.611.432-1.107.964-1.107s.964.495.964 1.107v5.112c0 .611-.432 1.107-.964 1.107s-.964-.495-.964-1.107V10.36z"/><path fill="#050505" style="fill:var(--color3,#050505)" d="M28.184 3.131c.289-.03.581-.045.878-.045A8.333 8.333 0 0 1 37 8.832c-.289.03-.581.045-.878.045a8.333 8.333 0 0 1-7.938-5.746z"/></symbol><symbol id="icon-github" viewBox="0 0 32 32"><path d="M16 .395c-8.836 0-16 7.163-16 16 0 7.069 4.585 13.067 10.942 15.182.8.148 1.094-.347 1.094-.77 0-.381-.015-1.642-.022-2.979-4.452.968-5.391-1.888-5.391-1.888-.728-1.849-1.776-2.341-1.776-2.341-1.452-.993.11-.973.11-.973 1.606.113 2.452 1.649 2.452 1.649 1.427 2.446 3.743 1.739 4.656 1.33.143-1.034.558-1.74 1.016-2.14-3.554-.404-7.29-1.777-7.29-7.907 0-1.747.625-3.174 1.649-4.295-.166-.403-.714-2.03.155-4.234 0 0 1.344-.43 4.401 1.64a15.353 15.353 0 0 1 4.005-.539c1.359.006 2.729.184 4.008.539 3.054-2.07 4.395-1.64 4.395-1.64.871 2.204.323 3.831.157 4.234 1.026 1.12 1.647 2.548 1.647 4.295 0 6.145-3.743 7.498-7.306 7.895.574.497 1.085 1.47 1.085 2.963 0 2.141-.019 3.864-.019 4.391 0 .426.288.925 1.099.768C27.421 29.457 32 23.462 32 16.395c0-8.837-7.164-16-16-16z"/></symbol><symbol id="icon-heart" viewBox="0 0 32 32" fill="none"><path stroke="#000" d="M9.9 7.431c-.481.119-.825.356-1.6 1.125-.875.869-.944.994-.644 1.287.281.287.419.225 1.225-.563 1.325-1.3 1.3-1.3 3.994.1 1.081.556 2.056 1.1 2.169 1.2.444.387.456.456.456 2.45v1.781h-.262c-.594 0-1.256-.519-1.45-1.119a6.02 6.02 0 0 1-.162-.85c-.037-.313-.106-.625-.156-.694-.1-.15-2.519-1.15-2.787-1.15-.088 0-.2.037-.256.075-.231.188-2.575 3.225-2.744 3.556-.494.988-.494 2.256.006 3.244.369.731 1.044 1.369 1.769 1.681.594.256 2.037.456 2.287.319.319-.169.287-.675-.044-.806a6.682 6.682 0 0 0-.794-.137c-1.025-.113-1.631-.425-2.125-1.075-.619-.819-.706-2.075-.2-2.919.131-.219 1.875-2.456 2.156-2.756l.15-.169.881.363.887.369.1.613c.063.381.169.744.275.95.25.494.731.975 1.213 1.213.375.181.463.194.975.188.7-.012.863-.012 1.563 0 .512.006.6-.006.975-.188a2.882 2.882 0 0 0 1.2-1.181c.15-.294.244-.662.344-1.294l.044-.306 1.788-.725.506.637c.275.344.563.681.625.738.288.256.738.05.738-.344 0-.162-.137-.369-.694-1.075-.375-.481-.719-.894-.762-.919-.163-.106-.438-.031-1.656.456-.844.338-1.3.556-1.356.644-.05.069-.119.381-.156.694a6.146 6.146 0 0 1-.163.85c-.194.6-.856 1.119-1.444 1.119-.231 0-.269-.019-.306-.156-.019-.081-.025-.875-.012-1.762.019-1.5.031-1.631.156-1.863a1.84 1.84 0 0 1 .319-.425c.181-.175 3.712-2.044 4.163-2.206a1.36 1.36 0 0 1 1.038.044c.219.094 1.319 1.162 4.75 4.594 4.844 4.831 4.631 4.65 4.969 4.306.344-.337.538-.119-4.387-5.037-4.012-4.006-4.594-4.563-4.912-4.706-.438-.206-1.087-.275-1.525-.169-.163.044-1.238.556-2.387 1.15-1.512.781-2.156 1.144-2.356 1.338l-.275.262-.275-.262c-.194-.188-.831-.55-2.263-1.294-1.1-.569-2.131-1.081-2.306-1.138-.319-.112-.912-.138-1.256-.056zM3.112 13.738C-.263 17.107-.182 17.013.156 17.344c.331.337.237.419 3.606-2.95 2.837-2.838 3.112-3.131 3.112-3.313a.435.435 0 0 0-.45-.456c-.188 0-.487.287-3.313 3.113z"/><path stroke="#000" d="M23.563 14.425c-.188.15-.181.369.025.919.419 1.137.006 2.438-.975 3.094-.475.313-.794.413-1.769.531-1.194.156-2.169.462-3.106.988-.619.344-1.144.756-1.431 1.119-.144.181-.281.331-.306.331s-.162-.15-.306-.331c-.3-.381-.906-.85-1.512-1.169-.512-.269-.75-.281-.925-.056-.262.337-.156.506.625.962 1.075.631 1.544 1.275 1.606 2.163.025.394.012.462-.106.581-.069.069-.206.131-.294.131s-.606-.238-1.15-.525c-.537-.288-1.094-.556-1.225-.594-.15-.044-.925-.069-1.963-.069H9.032l-.719.256c-.394.144-.912.313-1.156.375-.944.262-1.987.219-2.994-.125-1.163-.394-2.188-.419-3.319-.081-.656.2-.844.337-.844.619 0 .175.256.456.425.456.063 0 .35-.075.644-.169.45-.144.644-.169 1.306-.169.719-.006.825.006 1.387.194 1.631.544 2.831.512 4.537-.106l.856-.313h3.294l.975.512c.537.288 1.063.55 1.169.594.313.119.719.094 1.075-.075l.331-.15.331.15c.356.169.762.194 1.075.075.106-.044.631-.306 1.169-.594l.975-.512h3.3l.762.281c1.756.65 2.981.688 4.619.144.569-.194.675-.206 1.394-.2.663 0 .856.025 1.306.169.294.094.581.169.644.169.169 0 .425-.281.425-.456 0-.281-.188-.419-.844-.619-1.056-.319-2.219-.313-3.125.019-.744.269-1.113.331-1.938.325-.894-.006-1.106-.05-2.406-.512l-.719-.256h-1.719c-1.038 0-1.813.025-1.962.069-.131.038-.681.306-1.225.594-.538.288-1.056.525-1.144.525-.281 0-.419-.2-.419-.594 0-.719.381-1.413 1.056-1.913.9-.669 2.063-1.106 3.375-1.275 1.262-.163 1.637-.288 2.3-.756.919-.656 1.456-1.725 1.456-2.9 0-.775-.319-1.794-.594-1.9a.552.552 0 0 0-.531.075z"/></symbol><symbol id="scroll-to-top_icon" viewBox="0 0 33 32"><path d="M28.889 17.666c.432.411.992.613 1.552.605s1.114-.223 1.536-.647l.032-.032a2.108 2.108 0 0 0-.045-2.96C27.282 9.948 22.521 5.314 17.802.659a.411.411 0 0 0-.042-.05c-.432-.414-.997-.615-1.557-.607s-1.117.225-1.538.65l-.069.072C9.941 5.363 5.272 9.989.628 14.636c-.408.409-.618.936-.626 1.47s.186 1.069.586 1.488l.04.04c.419.416.971.631 1.528.639s1.119-.194 1.552-.605L16.246 5.143l12.645 12.525zm-.531 13.732c.43.409.989.607 1.546.599a2.2 2.2 0 0 0 1.536-.647l.032-.032a2.11 2.11 0 0 0-.043-2.96c-4.586-4.584-9.096-9.324-13.626-13.971-.013-.019-.029-.037-.045-.056-.432-.411-.997-.613-1.557-.605s-1.117.225-1.538.65c-4.496 4.642-8.976 9.302-13.467 13.952l-.034.032a2.11 2.11 0 0 0-.037 2.958l.04.04c.419.416.971.631 1.528.639s1.119-.194 1.552-.605l12-12.515 12.114 12.52z"/></symbol></symbol></defs></svg>