<!-- Generated by IcoMoon.io -->
<svg version="1.1" xmlns="http://www.w3.org/2000/svg" width="1024" height="1024" viewBox="0 0 1024 1024">
<title></title>
<g id="icomoon-ignore">
</g>
<path fill="#000" d="M316.8 237.8c-15.4 3.8-26.4 11.4-51.2 36-28 27.8-30.2 31.8-20.6 41.2 9 9.2 13.4 7.2 39.2-18 42.4-41.6 41.6-41.6 127.8 3.2 34.6 17.8 65.8 35.2 69.4 38.4 14.2 12.4 14.6 14.6 14.6 78.4v57h-8.4c-19 0-40.2-16.6-46.4-35.8-1.6-5-4-17.4-5.2-27.2-1.2-10-3.4-20-5-22.2-3.2-4.8-80.6-36.8-89.2-36.8-2.8 0-6.4 1.2-8.2 2.4-7.4 6-82.4 103.2-87.8 113.8-15.8 31.6-15.8 72.2 0.2 103.8 11.8 23.4 33.4 43.8 56.6 53.8 19 8.2 65.2 14.6 73.2 10.2 10.2-5.4 9.2-21.6-1.4-25.8-3-1-14.4-3-25.4-4.4-32.8-3.6-52.2-13.6-68-34.4-19.8-26.2-22.6-66.4-6.4-93.4 4.2-7 60-78.6 69-88.2l4.8-5.4 28.2 11.6 28.4 11.8 3.2 19.6c2 12.2 5.4 23.8 8.8 30.4 8 15.8 23.4 31.2 38.8 38.8 12 5.8 14.8 6.2 31.2 6 22.4-0.4 27.6-0.4 50 0 16.4 0.2 19.2-0.2 31.2-6 15.2-7.4 30.8-22.8 38.4-37.8 4.8-9.4 7.8-21.2 11-41.4l1.4-9.8 57.2-23.2 16.2 20.4c8.8 11 18 21.8 20 23.6 9.2 8.2 23.6 1.6 23.6-11 0-5.2-4.4-11.8-22.2-34.4-12-15.4-23-28.6-24.4-29.4-5.2-3.4-14-1-53 14.6-27 10.8-41.6 17.8-43.4 20.6-1.6 2.2-3.8 12.2-5 22.2-1.2 9.8-3.6 22.2-5.2 27.2-6.2 19.2-27.4 35.8-46.2 35.8-7.4 0-8.6-0.6-9.8-5-0.6-2.6-0.8-28-0.4-56.4 0.6-48 1-52.2 5-59.6 2.4-4.4 6.8-10.6 10.2-13.6 5.8-5.6 118.8-65.4 133.2-70.6 10.8-4 22.6-3.4 33.2 1.4 7 3 42.2 37.2 152 147 155 154.6 148.2 148.8 159 137.8 11-10.8 17.2-3.8-140.4-161.2-128.4-128.2-147-146-157.2-150.6-14-6.6-34.8-8.8-48.8-5.4-5.2 1.4-39.6 17.8-76.4 36.8-48.4 25-69 36.6-75.4 42.8l-8.8 8.4-8.8-8.4c-6.2-6-26.6-17.6-72.4-41.4-35.2-18.2-68.2-34.6-73.8-36.4-10.2-3.6-29.2-4.4-40.2-1.8z"></path>
<path fill="#000" d="M99.6 439.6c-108 107.8-105.4 104.8-94.6 115.4 10.6 10.8 7.6 13.4 115.4-94.4 90.8-90.8 99.6-100.2 99.6-106 0-8.6-6-14.6-14.4-14.6-6 0-15.6 9.2-106 99.6z"></path>
<path fill="#000" d="M754 461.6c-6 4.8-5.8 11.8 0.8 29.4 13.4 36.4 0.2 78-31.2 99-15.2 10-25.4 13.2-56.6 17-38.2 5-69.4 14.8-99.4 31.6-19.8 11-36.6 24.2-45.8 35.8-4.6 5.8-9 10.6-9.8 10.6s-5.2-4.8-9.8-10.6c-9.6-12.2-29-27.2-48.4-37.4-16.4-8.6-24-9-29.6-1.8-8.4 10.8-5 16.2 20 30.8 34.4 20.2 49.4 40.8 51.4 69.2 0.8 12.6 0.4 14.8-3.4 18.6-2.2 2.2-6.6 4.2-9.4 4.2s-19.4-7.6-36.8-16.8c-17.2-9.2-35-17.8-39.2-19-4.8-1.4-29.6-2.2-62.8-2.2h-55l-23 8.2c-12.6 4.6-29.2 10-37 12-30.2 8.4-63.6 7-95.8-4-37.2-12.6-70-13.4-106.2-2.6-21 6.4-27 10.8-27 19.8 0 5.6 8.2 14.6 13.6 14.6 2 0 11.2-2.4 20.6-5.4 14.4-4.6 20.6-5.4 41.8-5.4 23-0.2 26.4 0.2 44.4 6.2 52.2 17.4 90.6 16.4 145.2-3.4l27.4-10h105.4l31.2 16.4c17.2 9.2 34 17.6 37.4 19 10 3.8 23 3 34.4-2.4l10.6-4.8 10.6 4.8c11.4 5.4 24.4 6.2 34.4 2.4 3.4-1.4 20.2-9.8 37.4-19l31.2-16.4h105.6l24.4 9c56.2 20.8 95.4 22 147.8 4.6 18.2-6.2 21.6-6.6 44.6-6.4 21.2 0 27.4 0.8 41.8 5.4 9.4 3 18.6 5.4 20.6 5.4 5.4 0 13.6-9 13.6-14.6 0-9-6-13.4-27-19.8-33.8-10.2-71-10-100 0.6-23.8 8.6-35.6 10.6-62 10.4-28.6-0.2-35.4-1.6-77-16.4l-23-8.2h-55c-33.2 0-58 0.8-62.8 2.2-4.2 1.2-21.8 9.8-39.2 19-17.2 9.2-33.8 16.8-36.6 16.8-9 0-13.4-6.4-13.4-19 0-23 12.2-45.2 33.8-61.2 28.8-21.4 66-35.4 108-40.8 40.4-5.2 52.4-9.2 73.6-24.2 29.4-21 46.6-55.2 46.6-92.8 0-24.8-10.2-57.4-19-60.8-6-2.2-12.4-1.2-17 2.4z"></path>
</svg>
