<svg width="22" height="22" viewBox="0 0 22 22" fill="none" xmlns="http://www.w3.org/2000/svg">
<path opacity="0.5" d="M19.1036 4.2258C18.6354 3.75739 18.0795 3.38581 17.4677 3.13229C16.8558 2.87878 16.2001 2.74829 15.5378 2.74829C14.8755 2.74829 14.2197 2.87878 13.6079 3.13229C12.996 3.38581 12.4401 3.75739 11.9719 4.2258L11.0003 5.19746L10.0286 4.2258C9.08289 3.28008 7.80022 2.74878 6.46277 2.74878C5.12532 2.74878 3.84266 3.28008 2.89694 4.2258C1.95122 5.17152 1.41992 6.45418 1.41992 7.79163C1.41992 9.12908 1.95122 10.4117 2.89694 11.3575L3.8686 12.3291L11.0003 19.4608L18.1319 12.3291L19.1036 11.3575C19.572 10.8893 19.9436 10.3334 20.1971 9.72154C20.4506 9.1097 20.5811 8.45391 20.5811 7.79163C20.5811 7.12935 20.4506 6.47356 20.1971 5.86172C19.9436 5.24988 19.572 4.69399 19.1036 4.2258V4.2258Z" stroke="#F8F8F8" stroke-width="2" stroke-linecap="round" stroke-linejoin="round"/>
</svg>
