<svg width="18" height="18" viewBox="0 0 18 18" fill="none" xmlns="http://www.w3.org/2000/svg">
<g id="search">
<path id="Vector" d="M16.2825 15.2178L13.5 12.4578C14.5801 11.1111 15.1031 9.40177 14.9616 7.68127C14.8201 5.96077 14.0247 4.35988 12.7391 3.20778C11.4535 2.05567 9.77535 1.43993 8.04968 1.48715C6.32402 1.53437 4.68203 2.24097 3.46135 3.46165C2.24066 4.68234 1.53406 6.32432 1.48684 8.04999C1.43962 9.77565 2.05537 11.4538 3.20747 12.7394C4.35958 14.025 5.96047 14.8204 7.68097 14.9619C9.40146 15.1034 11.1108 14.5804 12.4575 13.5003L15.2175 16.2603C15.2872 16.3306 15.3702 16.3864 15.4616 16.4245C15.553 16.4625 15.651 16.4821 15.75 16.4821C15.849 16.4821 15.947 16.4625 16.0384 16.4245C16.1298 16.3864 16.2128 16.3306 16.2825 16.2603C16.4177 16.1204 16.4932 15.9335 16.4932 15.739C16.4932 15.5445 16.4177 15.3576 16.2825 15.2178ZM8.24999 13.5003C7.21164 13.5003 6.1966 13.1924 5.33325 12.6155C4.46989 12.0386 3.79698 11.2187 3.39962 10.2594C3.00226 9.30007 2.89829 8.24447 3.10087 7.22607C3.30344 6.20767 3.80345 5.27221 4.53768 4.53798C5.27191 3.80376 6.20737 3.30374 7.22577 3.10117C8.24417 2.8986 9.29977 3.00257 10.2591 3.39993C11.2184 3.79729 12.0383 4.47019 12.6152 5.33355C13.1921 6.19691 13.5 7.21194 13.5 8.25029C13.5 9.64268 12.9469 10.978 11.9623 11.9626C10.9777 12.9472 9.64238 13.5003 8.24999 13.5003Z" fill="#050505" fill-opacity="0.5"/>
</g>
</svg>
