<svg xmlns="http://www.w3.org/2000/svg" aria-hidden="true" style="position:absolute;width:0;height:0;overflow:hidden">
  <defs>
    <!-- MOBILE MENU -->
    <symbol id="icon-align-justify" viewBox="0 0 23 24" >
      <path stroke-linecap="round" stroke-linejoin="round" stroke="black" stroke-width="1.454" d="M20.364 10.061H2.909M20.364 6.182H2.909M20.364 13.939H2.909M20.364 17.818H2.909"/>
    </symbol>
    <!-- ARROW DOWN -->
    <symbol id="icon-chevron-down" viewBox="0 0 24 24">
      <path stroke-linecap="round" stroke-linejoin="round" stroke-width="2.667" d="m6 9 6 6 6-6"/>
    </symbol>
    <!-- SEARCH -->
    <symbol id="icon-search-3-1" viewBox="0 0 24 24" fill="none">
      <path stroke="black" d="M21.71 20.29 18 16.61a9.005 9.005 0 0 0-1.014-12.334A9 9 0 1 0 16.61 18l3.68 3.68a1.007 1.007 0 0 0 .71.296.998.998 0 0 0 .71-.296 1.003 1.003 0 0 0 0-1.39zM11 18a7.002 7.002 0 0 1-6.865-8.365 7.003 7.003 0 0 1 9.544-5.102A7 7 0 0 1 11 18z"/>
    </symbol>
    <!-- SEARCH-ARROW -->
    <symbol id="search-arrow" viewBox="0 0 24 24" fill="none">
      <path stroke="black" d="M5.293 9.707l6 6c0.391 0.391 1.024 0.391 1.414 0l6-6c0.391-0.391 0.391-1.024 0-1.414s-1.024-0.391-1.414 0l-5.293 5.293-5.293-5.293c-0.391-0.391-1.024-0.391-1.414 0s-0.391 1.024 0 1.414z"></path>
    </symbol>
    <!-- SHOPPING ICON -->
    <symbol id="icon-shopping-cart-03" viewBox="0 0 24 24" fill="none">
      <path stroke-linecap="round" stroke-linejoin="round" stroke="black" stroke-width="1.5" d="M5 14h13.136c1.013 0 1.519 0 1.922-.189a2 2 0 0 0 .858-.768c.232-.38.288-.883.4-1.89l.585-5.265c.034-.307.051-.461.002-.58a.498.498 0 0 0-.22-.246C21.57 5 21.416 5 21.106 5H4.5M2 2h1.248c.265 0 .397 0 .5.05a.5.5 0 0 1 .217.203c.057.1.065.232.081.496l.906 14.5c.016.264.025.396.081.496.05.088.125.159.217.204.104.05.236.05.5.05h13.248M7.5 21.5h.01m8.99 0h.01M8 21.5a.5.5 0 1 1-1 0 .5.5 0 0 1 1 0zm9 0a.5.5 0 1 1-1 0 .5.5 0 0 1 1 0z"/>
    </symbol>
    <!-- STAR ICON -->
    <symbol id="icon-Star-1" viewBox="0 0 24 24">
      <path d="M10.37 2.446c.513-1.579 2.748-1.579 3.261 0l1.449 4.459a1.715 1.715 0 0 0 1.63 1.185h4.688c1.661 0 2.351 2.125 1.008 3.101l-3.793 2.756a1.715 1.715 0 0 0-.623 1.917l1.449 4.459c.513 1.579-1.294 2.893-2.638 1.917l-3.793-2.756a1.716 1.716 0 0 0-2.015 0L7.2 22.24c-1.344.976-3.151-.337-2.638-1.917l1.449-4.459a1.716 1.716 0 0 0-.623-1.917l-3.793-2.755C.251 10.216.942 8.091 2.603 8.091h4.688c.743 0 1.401-.478 1.63-1.185l1.449-4.459z"/>
    </symbol>
    <!-- CLOSE ICON -->
    <symbol id="icon-x" viewBox="0 0 24 24" fill="none">
      <path stroke-linecap="round" stroke-linejoin="round" stroke="black" stroke-width="2" d="M18 6 6 18M6 6l12 12"/>
    </symbol>
    <!-- DOUBLE ARROW RIGHT -->
    <symbol id="icon-chevrons-right" viewBox="0 0 24 24">
      <path d="m13.707 17.707 5-5a.999.999 0 0 0 0-1.414l-5-5a.999.999 0 1 0-1.414 1.414L16.586 12l-4.293 4.293a.999.999 0 1 0 1.414 1.414zm-7 0 5-5a.999.999 0 0 0 0-1.414l-5-5a.999.999 0 1 0-1.414 1.414L9.586 12l-4.293 4.293a.999.999 0 1 0 1.414 1.414z"/>
    </symbol>
    <!-- SINGLE ARROW RIGHT -->
    <symbol id="icon-chevron-right" viewBox="0 0 24 24">
      <path d="m9.707 18.707 6-6a.999.999 0 0 0 0-1.414l-6-6a.999.999 0 1 0-1.414 1.414L13.586 12l-5.293 5.293a.999.999 0 1 0 1.414 1.414z"/>
    </symbol>
     <!-- DOUBLE ARROW LEFT -->
    <symbol id="icon-chevrons-left" viewBox="0 0 24 24">
      <path d="M11.707 16.293 7.414 12l4.293-4.293a.999.999 0 1 0-1.414-1.414l-5 5a.999.999 0 0 0 0 1.414l5 5a.999.999 0 1 0 1.414-1.414zm7 0L14.414 12l4.293-4.293a.999.999 0 1 0-1.414-1.414l-5 5a.999.999 0 0 0 0 1.414l5 5a.999.999 0 1 0 1.414-1.414z"/>
    </symbol>
     <!-- SINGLE ARROW LEFT -->
    <symbol id="icon-chevron-left" viewBox="0 0 24 24">
      <path d="M15.707 17.293 10.414 12l5.293-5.293a.999.999 0 1 0-1.414-1.414l-6 6a.999.999 0 0 0 0 1.414l6 6a.999.999 0 1 0 1.414-1.414z"/>
    </symbol>
    <!-- COOK LOGO -->
    <symbol id="icon-Logo" viewBox="0 0 32 32">
    <symbol id="icon-elements" viewBox="0 0 37 32">
        <path fill="#9bb537" style="fill: var(--color1, #9bb537)" d="M7.325 12.723h23.133v17.735h-23.133v-17.735z"></path>
        <path fill="#9bb537" style="fill: var(--color1, #9bb537)" d="M16.578 11.373c0 4.578-3.711 8.289-8.289 8.289s-8.289-3.711-8.289-8.289c0-4.578 3.711-8.289 8.289-8.289s8.289 3.711 8.289 8.289z"></path>
        <path fill="#9bb537" style="fill: var(--color1, #9bb537)" d="M26.988 8.289c0 4.578-3.711 8.289-8.289 8.289s-8.289-3.711-8.289-8.289c0-4.578 3.711-8.289 8.289-8.289s8.289 3.711 8.289 8.289z"></path>
        <path fill="#9bb537" style="fill: var(--color1, #9bb537)" d="M37.398 11.373c0 4.578-3.711 8.289-8.289 8.289s-8.289-3.711-8.289-8.289c0-4.578 3.711-8.289 8.289-8.289s8.289 3.711 8.289 8.289z"></path>
        <path fill="#f8f8f8" style="fill: var(--color2, #f8f8f8)" d="M7.325 29.301h23.133v2.036c0 0.366-0.324 0.663-0.723 0.663h-21.687c-0.399 0-0.723-0.297-0.723-0.663v-2.036z"></path>
        <path fill="#f8f8f8" style="fill: var(--color2, #f8f8f8)" d="M14.265 10.36c0-0.611 0.432-1.107 0.964-1.107v0c0.532 0 0.964 0.495 0.964 1.107v5.112c0 0.611-0.432 1.107-0.964 1.107v0c-0.532 0-0.964-0.495-0.964-1.107v-5.112z"></path>
        <path fill="#f8f8f8" style="fill: var(--color2, #f8f8f8)" d="M17.349 10.36c0-0.611 0.604-1.107 1.349-1.107v0c0.745 0 1.349 0.495 1.349 1.107v5.112c0 0.611-0.604 1.107-1.349 1.107v0c-0.745 0-1.349-0.495-1.349-1.107v-5.112z"></path>
        <path fill="#f8f8f8" style="fill: var(--color2, #f8f8f8)" d="M21.205 10.36c0-0.611 0.432-1.107 0.964-1.107v0c0.532 0 0.964 0.495 0.964 1.107v5.112c0 0.611-0.432 1.107-0.964 1.107v0c-0.532 0-0.964-0.495-0.964-1.107v-5.112z"></path>
        <path fill="#050505" style="fill: var(--color3, #050505)" d="M28.184 3.131c0.289-0.030 0.581-0.045 0.878-0.045 3.714 0 6.861 2.413 7.938 5.746-0.289 0.030-0.581 0.045-0.878 0.045-3.714 0-6.861-2.413-7.938-5.746z"></path>
    </symbol>
    <!-- select-arrow -->
   
  </defs>
</svg>