<?xml version="1.0" standalone="no"?>
<!DOCTYPE svg PUBLIC "-//W3C//DTD SVG 20010904//EN"
 "http://www.w3.org/TR/2001/REC-SVG-20010904/DTD/svg10.dtd">
<svg version="1.0" xmlns="http://www.w3.org/2000/svg"
 width="776.000000pt" height="776.000000pt" viewBox="0 0 776.000000 776.000000"
 preserveAspectRatio="xMidYMid meet">
<metadata>
Created by potrace 1.14, written by Peter Selinger 2001-2017
</metadata>
<g transform="translate(0.000000,776.000000) scale(0.100000,-0.100000)"
fill="#000000" stroke="none">
<path d="M3717 7193 c-2 -2 -26 -5 -53 -8 -42 -4 -80 -10 -179 -30 -45 -10
-184 -55 -250 -81 -73 -29 -256 -122 -265 -134 -3 -4 -16 -13 -29 -20 -14 -7
-30 -17 -35 -21 -6 -5 -42 -33 -81 -62 -96 -72 -227 -204 -312 -314 -39 -51
-73 -98 -75 -104 -3 -8 -24 -4 -68 14 -73 29 -154 57 -179 62 -9 2 -43 10 -76
18 -108 27 -169 36 -295 43 -52 3 -99 5 -105 5 -64 4 -285 -22 -382 -46 -13
-3 -33 -7 -45 -10 -83 -18 -259 -86 -358 -138 -90 -48 -214 -126 -218 -138 -2
-5 -8 -9 -14 -9 -16 0 -107 -80 -203 -177 -108 -111 -103 -104 -171 -201 -30
-42 -59 -83 -65 -90 -19 -23 -127 -246 -153 -316 -27 -71 -56 -174 -61 -213
-2 -11 -7 -32 -11 -45 -8 -26 -8 -26 -20 -123 -10 -80 -10 -368 0 -435 9 -66
18 -124 20 -135 1 -5 4 -14 7 -20 4 -5 9 -26 13 -45 7 -42 47 -168 71 -225
114 -274 315 -542 531 -705 32 -25 61 -48 64 -51 3 -3 50 -33 105 -66 118 -70
245 -132 305 -148 3 -1 12 -4 20 -8 38 -15 140 -45 180 -53 52 -9 59 -11 63
-14 1 -1 16 -3 32 -4 54 -5 93 -17 99 -31 3 -8 1 -17 -4 -20 -5 -3 -6 -15 0
-29 4 -12 4 -29 0 -36 -5 -8 -6 -18 -3 -24 5 -8 7 -77 3 -91 -5 -15 -2 -86 3
-91 4 -4 2 -14 -3 -24 -5 -10 -7 -20 -3 -23 5 -6 7 -83 3 -104 -4 -20 -2 -85
3 -90 4 -3 2 -13 -3 -22 -5 -10 -5 -23 -1 -30 5 -7 5 -30 1 -51 -4 -21 -4 -44
1 -51 4 -7 4 -20 -1 -29 -5 -9 -5 -22 -1 -29 5 -7 5 -30 1 -51 -4 -21 -4 -44
1 -51 4 -7 4 -20 -1 -30 -5 -9 -7 -19 -3 -22 5 -6 7 -87 3 -102 -5 -15 -2 -86
3 -91 4 -4 2 -14 -3 -24 -5 -10 -7 -20 -3 -23 5 -6 7 -83 3 -104 -1 -5 -1 -26
-1 -48 1 -22 1 -46 1 -52 0 -7 0 -21 0 -30 0 -10 0 -34 -1 -53 -1 -19 -1 -41
0 -47 1 -7 1 -20 1 -28 0 -8 0 -23 0 -32 0 -10 0 -34 -1 -53 -1 -19 -1 -41 0
-47 1 -7 1 -20 1 -28 0 -8 0 -23 0 -32 0 -10 0 -34 -1 -53 -1 -19 -1 -41 0
-47 1 -7 1 -20 1 -28 0 -8 0 -23 0 -32 0 -10 0 -34 -1 -53 -1 -19 -1 -41 0
-47 2 -19 2 -36 0 -175 -1 -70 2 -131 6 -137 3 -6 3 -11 -2 -11 -4 0 -7 -21
-6 -47 1 -27 2 -48 3 -48 0 0 3 -23 5 -51 2 -36 10 -60 26 -78 52 -60 -126
-56 2368 -56 2158 0 2288 1 2320 17 53 27 75 65 81 138 3 36 2 65 -3 65 -4 0
-5 5 -1 11 3 6 6 37 5 70 -2 69 -2 65 -2 194 0 55 0 111 1 125 1 14 1 32 1 40
0 8 0 38 0 65 0 28 0 62 0 78 -1 37 -1 145 0 257 0 36 0 72 0 80 0 8 0 38 0
65 0 28 1 61 0 75 0 41 -1 122 -1 160 1 109 2 167 1 180 0 8 0 38 0 65 0 28 0
62 0 78 0 26 0 96 0 157 0 17 0 69 0 118 0 48 1 98 2 112 2 14 0 40 -4 58 -4
17 -3 34 1 37 4 3 4 21 0 40 -4 19 -5 50 -1 68 6 31 7 40 1 97 -1 14 -2 50 -1
80 1 53 2 56 29 58 39 2 200 45 262 69 8 4 18 7 23 8 4 2 8 3 10 5 1 1 9 3 18
5 20 4 281 133 289 143 3 4 25 20 50 36 128 82 318 261 412 388 67 91 147 223
180 298 16 36 33 74 38 85 31 68 75 209 86 274 3 14 7 33 10 41 31 88 40 471
14 604 -6 32 -12 68 -12 80 -1 11 -5 26 -8 31 -4 6 -10 27 -14 48 -8 41 -53
183 -64 201 -3 6 -8 18 -9 27 -9 57 -167 323 -258 435 -47 58 -245 254 -256
254 -4 0 -14 6 -21 13 -64 63 -232 162 -408 241 -37 16 -179 63 -214 71 -12 2
-52 11 -91 19 -98 21 -189 32 -262 31 -35 0 -63 3 -63 6 0 3 -17 4 -37 2 -21
-2 -67 -5 -103 -8 -36 -3 -72 -6 -80 -6 -19 -2 -158 -26 -190 -34 -14 -3 -35
-8 -48 -11 -35 -7 -206 -65 -217 -74 -5 -4 -21 -10 -35 -13 -22 -5 -32 4 -82
76 -86 123 -211 248 -380 382 -9 7 -27 19 -40 26 -13 6 -25 15 -28 18 -6 9
-88 56 -165 96 -129 67 -353 141 -480 160 -22 3 -64 9 -94 14 -53 8 -357 12
-364 4z"/>
</g>
</svg>
